<svg xmlns="http://www.w3.org/2000/svg"  viewBox="0 0 100 100" width="40px" height="40px"><path fill="#60be92" d="M70,18.988H31c-6.6,0-12,5.4-12,12v39c0,6.6,5.4,12,12,12h39c6.6,0,12-5.4,12-12v-39 C82,24.388,76.6,18.988,70,18.988z"/><rect width="11" height="17" x="71" y="50" fill="#fbb822"/><rect width="11" height="17" x="71" y="34" fill="#39c2d8"/><path fill="#e3e3e4" d="M73,83H32.258C24.384,83,18,76.616,18,68.742V32.258C18,24.384,24.384,18,32.258,18H73V83z"/><ellipse cx="47" cy="46" fill="#bdc4d6" rx="7" ry="8"/><path fill="#25262f" d="M22.5,37.57c-0.28,0-0.5,0.22-0.5,0.5v2c0,0.27,0.22,0.5,0.5,0.5c0.28,0,0.5-0.23,0.5-0.5v-2 C23,37.79,22.78,37.57,22.5,37.57z"/><path fill="#25262f" d="M22.5,41.57c-0.28,0-0.5,0.22-0.5,0.5v4c0,0.27,0.22,0.5,0.5,0.5c0.28,0,0.5-0.23,0.5-0.5v-4 C23,41.79,22.78,41.57,22.5,41.57z"/><path fill="#25262f" d="M66.16,77.99H32.84c-5.44,0-9.84-4.41-9.84-9.84V49.49c0-0.28-0.22-0.5-0.5-0.5 c-0.28,0-0.5,0.22-0.5,0.5v18.66c0,5.99,4.85,10.84,10.84,10.84C46.227,78.993,59.613,78.997,73,79c0-0.333,0-0.667,0-1 C70.72,77.997,68.44,77.993,66.16,77.99z"/><path fill="#25262f" d="M81.5,51h-9c-0.276,0-0.5-0.224-0.5-0.5s0.224-0.5,0.5-0.5h9c0.276,0,0.5,0.224,0.5,0.5 S81.776,51,81.5,51z"/><path fill="#25262f" d="M82.5,35h-10c-0.276,0-0.5-0.224-0.5-0.5s0.224-0.5,0.5-0.5h10c0.276,0,0.5,0.224,0.5,0.5 S82.776,35,82.5,35z"/><path fill="#25262f" d="M81.5,67h-9c-0.276,0-0.5-0.224-0.5-0.5s0.224-0.5,0.5-0.5h9c0.276,0,0.5,0.224,0.5,0.5 S81.776,67,81.5,67z"/><path fill="#25262f" d="M47,54c-3.86,0-7-3.589-7-8s3.14-8,7-8s7,3.589,7,8S50.86,54,47,54z M47,39c-3.309,0-6,3.141-6,7 s2.691,7,6,7s6-3.141,6-7S50.309,39,47,39z"/><path fill="#bdc4d6" d="M62.79,63.26c-0.25,0.34-0.52,0.66-0.81,0.98C58.32,68.38,52.96,71,47,71 c-5.95,0-11.31-2.61-14.98-6.75c-0.28-0.32-0.55-0.64-0.8-0.98c0.11-0.34,0.27-0.68,0.49-1c1.26-1.95,4.16-3.58,8.18-4.5 C42.11,57.26,44.5,57,47,57c7.3,0,13.31,2.18,15.29,5.26C62.51,62.58,62.67,62.92,62.79,63.26z"/><path fill="#25262f" d="M38.5,23h-3c-0.276,0-0.5-0.224-0.5-0.5s0.224-0.5,0.5-0.5h3c0.276,0,0.5,0.224,0.5,0.5 S38.776,23,38.5,23z"/><path fill="#25262f" d="M48.5,23h-7c-0.276,0-0.5-0.224-0.5-0.5s0.224-0.5,0.5-0.5h7c0.276,0,0.5,0.224,0.5,0.5 S48.776,23,48.5,23z"/><path fill="#25262f" d="M47,31c-11.03,0-20,8.97-20,20c0,4.62,1.57,8.88,4.22,12.27c0.25,0.34,0.52,0.66,0.8,0.98 C35.69,68.39,41.05,71,47,71c5.96,0,11.32-2.62,14.98-6.76c0.29-0.32,0.56-0.64,0.81-0.98C65.43,59.87,67,55.62,67,51 C67,39.97,58.03,31,47,31z M62.29,62.26c-0.21,0.29-0.43,0.57-0.66,0.85C58.14,67.32,52.88,70,47,70s-11.14-2.68-14.63-6.88 c-0.22-0.28-0.44-0.56-0.66-0.85C29.38,59.12,28,55.22,28,51c0-10.48,8.52-19,19-19c10.48,0,19,8.52,19,19 C66,55.21,64.62,59.11,62.29,62.26z"/><path fill="#25262f" d="M62.29,62.26C60.31,59.18,54.3,57,47,57c-2.5,0-4.89,0.26-7.11,0.77c-4.02,0.92-6.92,2.55-8.18,4.5 c-0.22,0.32-0.38,0.66-0.49,1c0.25,0.34,0.52,0.66,0.8,0.98c0.03-0.38,0.15-0.76,0.35-1.13c0.36-0.69,0.99-1.36,1.84-1.96 c1.41-1.01,3.43-1.86,5.9-2.42C42.26,58.25,44.57,58,47,58c7.03,0,13.12,2.23,14.63,5.11c0.2,0.37,0.32,0.75,0.35,1.13 c0.29-0.32,0.56-0.64,0.81-0.98C62.67,62.92,62.51,62.58,62.29,62.26z"/><path fill="#bdc4d6" d="M82,34H72V19h0.318C77.665,19,82,23.335,82,28.682V34z"/><path fill="#25262f" d="M70,82.988H31c-7.18,0-13-5.82-13-13v-39c0-7.18,5.82-13,13-13h39c7.18,0,13,5.82,13,13v39 C83,77.168,77.179,82.988,70,82.988z M20,30.988v39c0,6.075,4.925,11,11,11h39c6.075,0,11-4.925,11-11v-39c0-6.075-4.925-11-11-11 H31C24.924,19.988,20,24.913,20,30.988z"/><path fill="#25262f" d="M73,19.5v62c0,0.28-0.22,0.5-0.5,0.5c-0.28,0-0.5-0.22-0.5-0.5v-62c0-0.28,0.22-0.5,0.5-0.5 C72.78,19,73,19.22,73,19.5z"/><path fill="#25262f" d="M72.5,23h-20c-0.276,0-0.5-0.224-0.5-0.5s0.224-0.5,0.5-0.5h20c0.276,0,0.5,0.224,0.5,0.5 S72.776,23,72.5,23z"/></svg>